<svg aria-hidden="true" style="position:absolute;width:0;height:0;overflow:hidden" xmlns="http://www.w3.org/2000/svg"><defs><symbol id="icon-burger" viewBox="0 0 45 32"><path stroke-linecap="round" stroke-width="4.174" d="M8.862 4.701h33.573M8.862 24.095h33.573M19.508 14.398h22.926"/></symbol><symbol id="icon-close" viewBox="0 0 32 32"><path stroke-linejoin="round" stroke-linecap="round" stroke-width="2.4" d="M24 8 8 24M8 8l16 16"/></symbol><symbol id="icon-facebook" viewBox="0 0 32 32"><path d="M19.52 4.64h.96v3.6h-1.2c-.48 0-.96 0-1.2.24s-.24.48-.24 1.04v1.28h2.64v3.04h-2.64v13.2h-4.08V13.76H11.6v-3.04h2.16V9.68c0-1.76.24-3.04.72-3.6.72-1.04 2.16-1.52 4.32-1.52.24.08.48.08.72.08z"/></symbol><symbol id="icon-instagram" viewBox="0 0 32 32"><path d="M28.718 10.756a9.264 9.264 0 0 0-.596-3.145 6.547 6.547 0 0 0-3.743-3.737 9.42 9.42 0 0 0-3.108-.596c-1.368-.061-1.801-.078-5.273-.078s-3.916 0-5.274.078a9.413 9.413 0 0 0-3.106.596 6.541 6.541 0 0 0-3.743 3.737 9.288 9.288 0 0 0-.596 3.101c-.061 1.367-.08 1.8-.08 5.265s0 3.909.08 5.265a9.335 9.335 0 0 0 .596 3.104 6.548 6.548 0 0 0 3.744 3.735 9.37 9.37 0 0 0 3.106.639c1.369.061 1.803.079 5.274.079s3.916 0 5.274-.079a9.362 9.362 0 0 0 3.108-.595 6.555 6.555 0 0 0 3.743-3.737 9.35 9.35 0 0 0 .596-3.104c.061-1.365.08-1.798.08-5.265-.003-3.466-.003-3.906-.082-5.264zM15.99 22.531c-3.631 0-6.572-2.936-6.572-6.561s2.941-6.561 6.572-6.561c3.628 0 6.572 2.936 6.572 6.561s-2.944 6.561-6.572 6.561zm6.834-11.835a1.53 1.53 0 1 1 0-3.06 1.53 1.53 0 1 1 0 3.06z"/><path d="M15.992 19.976a4.004 4.004 0 1 0 0-8.009 4.004 4.004 0 0 0 0 8.009z"/></symbol><symbol id="icon-youtube" viewBox="0 0 32 32"><path d="M24.24 6c-1.36-.08-4.16-.16-8.4-.16h-.56c-4.08 0-6.8.08-8.16.24-1.84.16-3.12.64-3.84 1.28-.64.56-1.12 1.6-1.28 2.96-.08.88-.16 2.72-.16 5.52v.4c0 2.64.08 4.48.24 5.36.24 1.28.64 2.24 1.44 2.8.8.64 2.16 1.04 4.08 1.2 1.36.08 4.16.16 8.4.16h.56c4.08 0 6.8-.08 8.16-.24 1.84-.16 3.12-.64 3.84-1.28.64-.56 1.12-1.6 1.28-2.96.08-.88.16-2.72.16-5.52v-.4c0-2.64-.08-4.48-.24-5.36-.24-1.28-.64-2.24-1.44-2.8-.8-.64-2.16-1.04-4.08-1.2zm-3.12 9.84-8.8 5.28V10.56l8.8 5.28z"/></symbol><symbol id="icon-scroll-down" viewBox="0 0 32 32"><path d="M16.947 17.867a1.334 1.334 0 0 1-1.894 0l-6.107-6.12a1.334 1.334 0 1 0-1.894 1.88l6.12 6.12a4.001 4.001 0 0 0 5.654 0l6.12-6.12a1.337 1.337 0 0 0-.434-2.172 1.331 1.331 0 0 0-1.46.292l-6.107 6.12z"/></symbol><symbol id="icon-warning" viewBox="0 0 32 32"><path d="M15.652 0c1.446 0 2.832.185 4.158.554s2.576.891 3.75 1.565c1.174.674 2.228 1.489 3.163 2.446s1.75 2.016 2.446 3.179 1.223 2.408 1.582 3.734a16.38 16.38 0 0 1 .554 4.174c0 1.446-.185 2.832-.554 4.158s-.891 2.576-1.565 3.75c-.674 1.174-1.489 2.228-2.446 3.163s-2.016 1.75-3.179 2.446-2.408 1.223-3.734 1.582a16.38 16.38 0 0 1-4.174.554c-1.446 0-2.832-.185-4.158-.554s-2.576-.891-3.75-1.565c-1.174-.674-2.228-1.489-3.163-2.446s-1.75-2.016-2.446-3.179S.913 21.153.554 19.827A16.38 16.38 0 0 1 0 15.653c0-1.446.185-2.832.554-4.158s.891-2.576 1.565-3.75c.674-1.174 1.489-2.228 2.446-3.163s2.016-1.75 3.179-2.446C8.907 1.44 10.152.913 11.478.554S14.195.011 15.652 0zm0 29.217c1.239 0 2.435-.163 3.587-.489s2.234-.783 3.245-1.369a13.588 13.588 0 0 0 4.875-4.859c.587-1 1.043-2.082 1.369-3.245s.489-2.364.489-3.603-.163-2.435-.489-3.587c-.326-1.152-.783-2.234-1.369-3.245s-1.294-1.929-2.12-2.755c-.826-.826-1.739-1.533-2.739-2.12s-2.082-1.043-3.245-1.37a13.286 13.286 0 0 0-3.603-.489c-1.25 0-2.451.163-3.603.489a13.735 13.735 0 0 0-5.983 3.49 12.896 12.896 0 0 0-2.12 2.739c-.576 1-1.033 2.082-1.37 3.245s-.5 2.364-.489 3.603c0 1.239.163 2.435.489 3.587s.783 2.234 1.37 3.245a13.616 13.616 0 0 0 4.859 4.875c1 .587 2.082 1.043 3.245 1.369s2.364.489 3.603.489zM14.609 8.348h2.087v10.435h-2.087V8.348zm0 12.522h2.087v2.087h-2.087V20.87z"/></symbol><symbol id="icon-moon" viewBox="0 0 32 32"><path d="M16.128 31.453c-5.902 0-11.591-3.255-14.409-8.881-3.889-7.77-0.97-17.125 6.647-21.299l1.326-0.726-0.396 1.459c-0.952 3.512-0.578 7.238 1.051 10.491 1.769 3.534 4.81 6.168 8.56 7.415 3.751 1.247 7.762 0.96 11.297-0.809v0c0.161-0.080 0.317-0.166 0.472-0.252l1.326-0.727-0.376 1.449c-1.199 4.422-4.231 8.131-8.321 10.179-2.306 1.154-4.76 1.7-7.177 1.701zM7.722 3.176c-6.056 4.136-8.207 12.119-4.851 18.82 3.653 7.296 12.56 10.258 19.857 6.606 3.316-1.661 5.878-4.511 7.193-7.95-3.623 1.561-7.644 1.738-11.421 0.481-4.077-1.356-7.381-4.218-9.305-8.060-1.54-3.075-2.047-6.537-1.473-9.897z"></path></symbol><symbol id="icon-sun" viewBox="0 0 32 32"><path d="M11.144 2.928l0.988 2.384-0.954 0.395-0.988-2.384 0.954-0.395z"></path><path d="M3.321 10.19l2.384 0.988-0.395 0.954-2.384-0.988 0.395-0.954z"></path><path d="M2.93 20.859l2.384-0.988 0.395 0.954-2.384 0.988-0.395-0.954z"></path><path d="M11.142 29.075l-0.954-0.395 0.988-2.384 0.954 0.395-0.988 2.384z"></path><path d="M20.858 29.069l-0.988-2.384 0.954-0.395 0.988 2.384-0.954 0.395z"></path><path d="M28.677 21.81l-2.384-0.988 0.395-0.954 2.384 0.988-0.395 0.954z"></path><path d="M29.070 11.145l-2.384 0.988-0.395-0.954 2.384-0.988 0.395 0.954z"></path><path d="M20.855 2.926l0.954 0.395-0.988 2.384-0.954-0.395 0.988-2.384z"></path><path d="M16 5.677c-5.692 0-10.323 4.631-10.323 10.323s4.631 10.323 10.323 10.323 10.323-4.631 10.323-10.323-4.631-10.323-10.323-10.323zM16 25.29c-5.123 0-9.29-4.168-9.29-9.29s4.168-9.29 9.29-9.29 9.29 4.168 9.29 9.29-4.168 9.29-9.29 9.29z"></path><path d="M15.484 0h1.032v4.645h-1.032v-4.645z"></path><path d="M5.051 4.321l3.285 3.285-0.73 0.73-3.285-3.285 0.73-0.73z"></path><path d="M0 15.484h4.645v1.032h-4.645v-1.032z"></path><path d="M5.051 27.679l-0.73-0.73 3.285-3.285 0.73 0.73-3.285 3.285z"></path><path d="M15.484 27.355h1.032v4.645h-1.032v-4.645z"></path><path d="M26.947 27.68l-3.285-3.285 0.73-0.73 3.285 3.285-0.73 0.73z"></path><path d="M27.355 15.484h4.645v1.032h-4.645v-1.032z"></path><path d="M26.949 4.321l0.73 0.73-3.285 3.285-0.73-0.73 3.285-3.285z"></path></symbol></defs></svg>